<svg xmlns="http://www.w3.org/2000/svg" xmlns:xlink="http://www.w3.org/1999/xlink" viewBox="0 0 77 54" fill="#fff" fill-rule="evenodd" stroke="#000" stroke-linecap="round" stroke-linejoin="round"><use xlink:href="#E" x=".5" y=".5"/><defs><linearGradient id="A" x1="51.80%" y1="79.74%" x2="48.21%" y2="18.19%"><stop offset="13.2%" stop-color="#b22b2d"/><stop offset="77.7%" stop-color="#410800"/></linearGradient><linearGradient id="B" x1="51.73%" y1="80.68%" x2="47.92%" y2="19.42%"><stop offset="13.2%" stop-color="#b22b2d"/><stop offset="77.7%" stop-color="#410800"/></linearGradient><linearGradient id="C" x1="1.74%" y1="452.42%" x2="101.97%" y2="-347.35%"><stop offset="2.5%" stop-color="#f38e82"/><stop offset="15%" stop-color="#f2bbb6"/><stop offset="41.6%" stop-color="#feeeef"/><stop offset="52.1%" stop-color="#feeeef"/><stop offset="80.7%" stop-color="#f2bbb6"/><stop offset="97.7%" stop-color="#feeeef"/></linearGradient><linearGradient id="D" x1="37.29%" y1="81.89%" x2="59.40%" y2="40.80%"><stop offset="13.2%" stop-color="#b22b2d"/><stop offset="76.7%" stop-color="#f38e82"/><stop offset="87.7%" stop-color="#f2bbb6"/><stop offset="100%" stop-color="#feeeef"/></linearGradient></defs><symbol id="E" overflow="visible"><g stroke="none" fill-rule="nonzero"><path d="M67.727 17.246c.62-.111.747-.634 1.353-.539-.666-.825-1.069-1.03-1.353-1.467.072.543-.097.837-.141 1.162l.141.843z"/><path d="M30.447 12.192c-.432.158-1.31.527-2.008.586.098.195.195.521.298.756-1.697.071-1.425 1.533-1.642 2.527.347.157.477.3.899.343-.128.182-.377.608-.483.795.161.299.459.299.577.758 3.316.245 3.095-2.476 3.23-4.716l-.87-1.049zm2.727 11.643c-1.134 1.236-2.06 1.403-1.939 2.897-.06-.73 1.195 1.853 1.023 1.558.181.31.034 1.236.301 1.747l.6-.01-.04 2.539c.334.025.568.152.901.169-.032.452.34 1.067.299 1.532.286-.051.61-.018.896-.059-.094.539.247.808.251 1.295.256-.026.55-.062.816-.047.288 1.881 1.36 1.994 1.818 3.395.313-.126.448-.201.791-.252l.682 2.154c.272.011.529-.007.828-.017.059.118.122.538.219.604.495.552 1.038.813 1.877.733.272.166.003.447.203.608.29-.097.796-.107 1.112-.117l.756 2.928c.106-.172.418-.452.572-.707.338.873.844 1.697 1.267 2.562.146-.235.2-.334.347-.516.166.283.095.621.272.876.244.105.495.191.747.27.221.07.528-.367.752-.299.205.062.328.628.534.702.196.069.541-.219.736-.128s.241.566.436.693c.282-.275.783-.424 1.029-.669.007.345.303.879.306 1.272.351-.078.566-.018.935-.215.527.688.969.868 1.511 1.528.346-.242.605-.307.894-.728.178.122-.052.495.156.597.366.064.342-.329.63-.281.202.266.205.593.394.837l.612-.448c.437.493.972.489 1.312.93.152-.034.296-.433.355-.507.109.266.137.554.196.829 1.443-.243.138-3.72-.112-5.115 1.564 2.246 1.637 4.02 4.04 5.426-.004-1.716-1.76-1.294-1.667-3.878.613.847 2.732 1.009 3.132.698-4.496-.186-3.825-4.615-6.913-5.387L33.174 23.835zM48.357 1.098c.114-.383.151-.747.058-1.078-1.133-.159-1.831.664-2.34 1.69a1.94 1.94 0 0 0-.096-.608c-.361-.022-.742.051-1.078.172l-.616 2.47c-.103-.309-.514-.723-.674-1.09-1.009.143-1.397 1.106-1.529 2.067-.228-.235-.973-.447-1.245-.721-.122.382-.472.696-.59 1.053-1.076-.186-.922-.171-1.428.621-1.689.539-5.254 3.819-4.637 5.916 3.221-1.496 6.634-2.633 10.009-3.864l1.849-.283c.93-.342 3.025-4.187 3.984-6.533-.525-.644-1.116-.413-1.666.188z" fill="#410800"/><path d="M26.298 21.399c-1.35.169-3.175.273-4.506.689-1.008.315-1.359.733-2.375 1.064l-7.795 2.798c-3.325 1.37-7.177 1.956-9.967 4.014a8.83 8.83 0 0 0-1.583 1.49c-.525 1.368 1.934.046 2.308-.603.984-1.708 3.727-1.956 5.356-2.474a149.66 149.66 0 0 0 6.854-2.349c4.518-1.65 8.29-3.396 13.586-3.827-.087-.397.117-.591.112-.928l-1.991.127z" fill="url(#A)"/><path d="M21.479 24.678c-.784.809-4.095 1.992-5.297 2.482-1.968.807-4.112 1.288-6.091 1.92s-4.313.789-6.223 1.588c-1.233.515-1.588 1.381-2.738 2.443s.68.191 2.107-.913c1.392-1.337 2.522-.608 3.742-1.046l5.676-1.932c2.231-.873 4.851-1.452 7.285-2.232 1.891-.605 3.45-1.769 5.267-2.442.005-.302-.043-.593-.102-.895l-3.626 1.028z" fill="url(#B)"/><path d="M64.976 16.843c-3.633.953-8.466.898-12.157.919-1.109.007-7.541-1.374-7.541-1.374s-3.359 6.899-2.125 5.685 2.703-1.912 3.9-2.332 3.822-.241 5.22-.403l6.34-.813c4.58-.7 9.078.093 12.978-1.946-1.476.275-3.12.008-4.534-.055l-2.08.318z" fill="#f38e82"/><path d="M67.727 15.24c-2.248 1.441-8.028 2.026-10.937 2.151-4.153.177-7.472-1.242-11.054-2.919-1.081-.507-7.617-2.189-6.754-4.011.763-1.614 7.915-.379 6.655-3.869-2.778.58-4.806.541-7.366 1.866-1.964 1.017-4.779 2.024-6.348 3.709-.173-.354-.575-.603-.741-1.01-1.361 1.054-.063 3.233-.705 4.583-.617 1.297-2.339 2.441-3.195 3.617-.813 1.114-1.836 2.817-2.94 3.515-1.053.667-3.555.708-2.691 2.691.386-.075.963.002 1.328-.133.073.177.026.477.164.614.52-.227 1.278-.159 1.756-.435.085.209.079.404.162.614.39-.272 1.319-.397 1.721-.666.62 1.772 1.919.165 2.802-.048 1.408-.341 2.362-.132 3.969-.514.123.783.476 1.434.644 2.196.281-.017.586-.027.864-.062.41 1.789 1.347 3.417 1.833 5.329 1.403-.241 1.248 1.209 2.701 1.12-.018 1.641 1.554 1.429 2.446 2.197.492.424 1.301 2.157 1.741 2.96.967-.289 1.977.215 3.193-.185.159 1.664 2.686 1.781 3.443 3.434.936-.355 1.575-.095 1.792.904.215.093.413-.145.617-.032.174.425.604.791.892 1.054.23-.199.629-.414.79-.573.702 1.073 2.673 1.601 4.052 1.414-.698-7.572-8.642-12.293-12.585-17.962-1.815-2.609-3.644-9.715 2.054-9.489.861.034 1.49.836 2.332 1.02.957.21 2.263.029 3.257.028 2.314-.003 4.453-.311 6.77-.568 2.551-.281 5.071-.302 7.696-.704l-.359-1.837z" fill="url(#C)"/><path d="M40.793 30.868c-.287 1.145-2.105 1.294-1.81 2.461.883-.071 1.889-.581 1.987.642.638-.052 1.337-.286 1.89-.107-.362.312-.191.522-.364.824l.591-.048c-.096.303.016.944-.092 1.241.48-.125 1.064-.062 1.536-.202.067.161-.141.324-.202.459.26-.041.536-.023.704.036-.53.133-.872.463-1.068.955.802.003 1.361-.605 2.066-.889-.507.481-.882 1.169-.964 1.833.571-.143 1.081-.589 1.569-.826-.173.514-.048.664-.398 1.113.726.044 1.452-.304 2.066-.584-.135.298-.152.773-.289 1.073 1.696-.88 3.516-3.612 1.025-4.82-1.172-.567-2.528-.607-3.653-1.377-1.053-.718-1.623-1.767-3.031-1.864l-1.564.081z" fill="#e0ada9"/><path d="M67.727 15.241c.813-.178 1.531-.035 2.335-.196.724-.144 1.311-.714 2.109-.641 1.469.13 2.392 1.914 2.829 3.165-.888-.136-1.782-.751-2.681-.942-1.087-.231-2.785.446-3.764-.094l-.828-1.292z" fill="#410800"/><path d="M37.564 25.213c-.335.443-.736.9-1.005 1.392.29-.103.72-.028 1.022-.115-.105.284-.015.753-.228 1.099.204-.049.498-.009.706-.062-.114.198-.141.563-.29.781.291-.092.678-.026.987-.14-.309.313-.468.752-.73 1.042.308-.102.75-.029 1.069-.108-.188.324-.146.95-.261 1.222.163.078.269-.004.439.01-.074.303.084.752.039 1.059.249-.159.641-.138.868-.249-.024.309.218.715.205 1.024.366-.15.804-.053 1.175-.305-.004.274.183.619.168.891.452-.169.925-.348 1.272-.754-.047.375.151.778.044 1.192.208-.097.507-.126.698-.236-.038.272.148.745.068 1.06.297-.156.913-.143 1.197-.299-.065.237.004.747-.039.917.592-.329 1.377-.653 2.128-.603-.129.227-.141.546-.296.788.379-.14.91-.032 1.295-.158l.021.459c.508-.132.978-.155 1.446-.372-.069.079-.161.328-.347.472.71.019 1.576-.544 1.731-.114-.19-.457-.489-.795-.608-1.26-.207.053-.462.015-.672.056-.204-1.404-.907-2.043-1.991-2.528-.431-.906-1.087-1.119-1.702-1.755-.221.078-.524.108-.745.238l-.084-.258c-.713.078-1.274-.348-1.424-1.053-.583-.009-.65-.154-1.232-.168-.255-.116-.103-.191-.513-.23-.149-.578-.37-.71-.624-1.017.038-1.124-.848-1.092-1.406-1.625-.279.019-.318.117-.538.201-.098-.042-.101-.323-.242-.407-.145.039-.29.208-.431.193-.06-.627-.376-.486-.779-.812l-.391.533z" fill="url(#D)"/><path d="M54.984 40.269c-.006-.098-.002-.227-.086-.294-.168.219-.412.357-.589.567l-.151-.881c-.053.041-.121.115-.187.134-.101.03-.096-.016-.101-.126-.008-.154-.001-.279-.075-.416-.104-.109-.281.049-.387.119l-.132-.926-.099.089c-.043-.265-.148-.527-.381-.678-.318-.241-.792-.095-1.084.111-.17-.265-.175-.565-.172-.872.003-.322-.012-.633-.085-.948a.86.86 0 0 0-.306.218c-.143.171-.04.461-.03.663.015.325.034.639.167.941.089.158.193.285.315.417.036.039.052.092.096.052l.218-.193c.162-.128.431-.263.642-.178.345.141.373.514.41.84l.145-.035.148.749c.175-.04.274-.161.428-.228.084.134.003.331.087.471.041.068.039.085.104.093.056.006.147-.049.19-.079.038.28.141.552.208.825.171-.268.442-.44.624-.697.094.084.022.286.115.353-.022-.026-.032-.056-.031-.09z" fill="#d74148"/><path d="M30.888 20.575l-.211.034c-.066.011-.154.022-.227.045-.079.025-.169.036-.269.076s-.211.072-.32.131l-.171.084-.173.103c-.06.033-.116.076-.175.117l-.176.129-.348.288-.675.611-.325.273-.306.226c-.095.069-.188.124-.271.171l-.115.067-.102.049-.193.092.179-.116.094-.061.104-.081.242-.201.267-.258.28-.306.591-.697.322-.348c.053-.058.113-.11.171-.163l.175-.153.178-.141.182-.123c.117-.084.241-.141.352-.201.637-.255.922.353.922.353zm5.089-1.436l-2.806 1.573-1.037.57-.479.259-.434.223-.895.459.843-.547.408-.265.449-.306.971-.67c1.891-1.546 2.98-1.296 2.98-1.296zm2.311-1.057l-.11.131-.316.35c-.264.279-.631.631-1.019.957l-.295.236-.295.217c-.193.138-.384.253-.55.343l-.234.112-.186.071-.166.046.155-.072c.049-.024.104-.061.169-.098s.131-.092.207-.144a5.28 5.28 0 0 0 .473-.417l.248-.255.245-.273c.928-1.254 1.675-1.204 1.675-1.204z" fill="#bb554c"/><path d="M39.699 22.681c-.619.116-1.24.23-1.846.14-.051.93 1.114 1.482 1.641 1.761-.191-.512.127-.783.169-1.108l.037-.793z" fill="#f38e82"/><path d="M35.082 15.99l-.345.076-.182.04-.197.061-.473.157-.569.222-.631.274-1.372.627-.71.305-.679.291c-.112.045-.216.098-.318.151l-.3.152c-.197.095-.376.201-.542.298l-.452.266-.341.218-.298.19.282-.213.324-.245.431-.303.522-.344.293-.179.31-.178.66-.347.673-.355 1.319-.734.619-.329.57-.277c.175-.087.358-.15.51-.214.563-.221.896.39.896.39z" fill="#bb554c"/></g></symbol></svg>